<svg id="Capa_1" enable-background="new 0 0 512 512" height="512" viewBox="0 0 512 512" width="512" xmlns="http://www.w3.org/2000/svg"><g><path d="m256 121c-61.57 0-115.327 41.635-130.727 101.248-1.161 4.492-.177 9.269 2.664 12.937s7.219 5.815 11.859 5.815h232.407c4.64 0 9.018-2.147 11.859-5.815s3.825-8.444 2.664-12.937c-15.399-59.613-69.156-101.248-130.726-101.248zm-94.89 90c17.115-36.116 53.761-60 94.89-60s77.774 23.884 94.89 60z"/><path d="m497 211h-20.633c-21.111-103.584-112.582-180-220.367-180-107.935 0-199.305 76.418-220.503 180h-20.497c-8.284 0-15 6.716-15 15v90c0 8.284 6.716 15 15 15h482c8.284 0 15-6.716 15-15v-90c0-8.284-6.716-15-15-15zm-15 90h-31v-15c0-8.284-6.716-15-15-15s-15 6.716-15 15v15h-30v-15c0-8.284-6.716-15-15-15s-15 6.716-15 15v15h-30v-15c0-8.284-6.716-15-15-15s-15 6.716-15 15v15h-30v-15c0-8.284-6.716-15-15-15s-15 6.716-15 15v15h-30v-15c0-8.284-6.716-15-15-15s-15 6.716-15 15v15h-30v-15c0-8.284-6.716-15-15-15s-15 6.716-15 15v15h-30v-15c0-8.284-6.716-15-15-15s-15 6.716-15 15v15h-31v-60h18.1c7.456 0 13.779-5.476 14.846-12.854 2.884-19.952 8.813-38.872 17.253-56.325l12.416 7.169c7.141 4.124 16.33 1.716 20.49-5.49 4.142-7.174 1.684-16.348-5.49-20.49l-12.312-7.108c7.211-10.438 15.402-20.135 24.432-28.959l9.073 10.812c5.299 6.314 14.756 7.199 21.133 1.849 6.346-5.325 7.173-14.787 1.849-21.133l-9.073-10.813c10.253-7.357 21.22-13.749 32.76-19.038l4.865 13.367c2.834 7.787 11.446 11.798 19.226 8.965 7.785-2.833 11.798-11.441 8.965-19.226l-4.903-13.471c12.068-3.409 24.573-5.661 37.371-6.659v14.404c0 8.284 6.716 15 15 15s15-6.716 15-15v-14.405c12.799.999 25.304 3.25 37.371 6.66l-4.903 13.47c-2.833 7.785 1.18 16.393 8.965 19.226 7.801 2.84 16.399-1.198 19.226-8.965l4.864-13.363c11.539 5.291 22.503 11.685 32.752 19.045l-9.063 10.801c-5.325 6.346-4.497 15.808 1.849 21.133 6.387 5.36 15.842 4.456 21.133-1.849l9.054-10.789c9.021 8.827 17.202 18.525 24.402 28.965l-12.263 7.08c-7.174 4.142-9.632 13.316-5.49 20.49 4.163 7.21 13.35 9.613 20.49 5.49l12.344-7.127c8.411 17.438 14.314 36.338 17.177 56.269 1.061 7.385 7.387 12.868 14.848 12.868h18.243z"/><path d="m497 361h-482c-8.284 0-15 6.716-15 15v90c0 8.284 6.716 15 15 15h482c8.284 0 15-6.716 15-15v-90c0-8.284-6.716-15-15-15zm-15 90h-31v-15c0-8.284-6.716-15-15-15s-15 6.716-15 15v15h-30v-15c0-8.284-6.716-15-15-15s-15 6.716-15 15v15h-30v-15c0-8.284-6.716-15-15-15s-15 6.716-15 15v15h-30v-15c0-8.284-6.716-15-15-15s-15 6.716-15 15v15h-30v-15c0-8.284-6.716-15-15-15s-15 6.716-15 15v15h-30v-15c0-8.284-6.716-15-15-15s-15 6.716-15 15v15h-30v-15c0-8.284-6.716-15-15-15s-15 6.716-15 15v15h-31v-60h452z"/></g></svg>